<?xml version="1.0" encoding="utf-8"?>
<!-- Generator: Adobe Illustrator 15.1.0, SVG Export Plug-In  -->
<!DOCTYPE svg PUBLIC "-//W3C//DTD SVG 1.1//EN" "http://www.w3.org/Graphics/SVG/1.1/DTD/svg11.dtd" [
	<!ENTITY ns_flows "http://ns.adobe.com/Flows/1.0/">
]>
<svg version="1.1"
	 xmlns="http://www.w3.org/2000/svg" xmlns:xlink="http://www.w3.org/1999/xlink" xmlns:a="http://ns.adobe.com/AdobeSVGViewerExtensions/3.0/"
	 x="0px" y="0px" width="582px" height="135px" viewBox="0.062 0.624 582 135" enable-background="new 0.062 0.624 582 135"
	 xml:space="preserve">
<defs>
</defs>
<path fill="#FFFFFF" d="M95.214,116.733c-2.961,4.555-8.099,8.739-15.414,12.553c-7.315,3.814-16.779,5.721-28.393,5.721
	c-14.858,0-27.142-4.752-36.848-14.261C4.853,111.239,0,98.943,0,83.856V58.238c0-15.085,4.526-27.382,13.578-36.89
	c9.051-9.507,20.721-14.261,35.011-14.261c14.231,0,25.418,3.501,33.56,10.503c8.141,7.002,12.297,16.026,12.468,27.07l-0.171,0.512
	H78.392c-0.513-7.229-3.26-13.179-8.241-17.847c-4.981-4.667-12.168-7.002-21.562-7.002c-9.508,0-17.164,3.556-22.971,10.666
	s-8.71,16.126-8.71,27.046v25.768c0,11.035,3.245,20.121,9.734,27.26c6.49,7.139,14.744,10.708,24.765,10.708
	c7.058,0,12.837-0.937,17.335-2.812c4.496-1.873,7.713-4.004,9.649-6.39V84.368H51.15V71.133h44.063V116.733z"/>
<path fill="#FFFFFF" d="M112.349,86.162c0-13.663,3.7-24.92,11.102-33.773c7.399-8.852,17.448-13.279,30.144-13.279
	c12.809,0,22.928,4.413,30.357,13.236c7.429,8.825,11.144,20.097,11.144,33.816v1.879c0,13.777-3.701,25.05-11.101,33.815
	c-7.401,8.768-17.479,13.15-30.229,13.15c-12.753,0-22.843-4.397-30.272-13.193c-7.429-8.795-11.144-20.053-11.144-33.772V86.162z
	 M129.171,87.997c0,9.78,2.063,17.854,6.191,24.222c4.127,6.369,10.261,9.553,18.402,9.553c8.026,0,14.117-3.184,18.274-9.553
	c4.154-6.367,6.233-14.441,6.233-24.222v-1.876c0-9.666-2.093-17.711-6.276-24.137c-4.185-6.425-10.319-9.638-18.402-9.638
	c-8.027,0-14.104,3.213-18.231,9.638c-4.129,6.426-6.191,14.471-6.191,24.137V87.997z"/>
<path fill="#FFFFFF" d="M236.581,23.91l-9.479,1.708l22.032,74.549l1.537,6.831h0.512l1.452-6.66l22.117-74.72l-9.394-1.708V8.881
	h45.429V23.91l-10.418,1.366l-36.634,107.938h-25.617l-36.72-107.938l-10.247-1.366V8.881h45.43V23.91z"/>
<path fill="#FFFFFF" d="M310.697,118.271l12.04-2.563V58.409l-13.321-2.562V40.818h38.257v74.89l11.955,2.563v14.943h-48.931
	V118.271z M347.673,18.701h-24.936V0h24.936V18.701z"/>
<path fill="#FFFFFF" d="M406.812,135.007c-13.321,0-23.967-4.27-31.937-12.809c-7.972-8.539-11.955-19.385-11.955-32.535v-3.416
	c0-13.719,3.771-25.02,11.314-33.901c7.543-8.881,17.661-13.292,30.357-13.236c12.467,0,22.145,3.757,29.033,11.272
	c6.888,7.515,10.333,17.676,10.333,30.486v13.577h-55.164l-0.171,0.513c0.455,6.092,2.489,11.101,6.105,15.029
	c3.614,3.928,8.524,5.892,14.73,5.892c5.521,0,10.104-0.555,13.748-1.665c3.643-1.11,7.628-2.86,11.955-5.252l6.746,15.371
	c-3.814,3.019-8.753,5.551-14.815,7.6C421.03,133.982,414.27,135.007,406.812,135.007z M404.592,58.324
	c-4.611,0-8.255,1.765-10.931,5.294c-2.677,3.531-4.327,8.17-4.953,13.92l0.257,0.426h30.57v-2.22c0-5.294-1.238-9.521-3.714-12.681
	C413.345,59.904,409.601,58.324,404.592,58.324z"/>
<path fill="#FFFFFF" d="M582.348,55.848l-9.308,1.195l-19.3,76.171h-20.836L515.74,78.221h-0.512l-17.164,54.993h-20.751
	L457.93,57.043l-9.309-1.195V40.818h41.843v15.029l-9.82,1.878l8.711,42.27h0.512l17.25-59.178h16.736l17.421,59.349h0.512
	l8.625-42.355l-9.905-1.964V40.818h41.843V55.848z"/>
</svg>
